<svg xmlns="http://www.w3.org/2000/svg" fill="none" viewBox="0 0 192 218" height="218" width="192">
<path stroke-linejoin="round" stroke-linecap="round" stroke="url(#paint0_linear_2945_96651)" d="M96 217L1 163L96 109L191 163L96 217Z"></path>
<path stroke-linejoin="round" stroke-linecap="round" stroke="black" fill="white" d="M36.1279 67.9152C39.7862 67.9153 42.7549 70.8988 42.7549 74.5851C42.7548 78.2713 39.7862 81.2549 36.1279 81.255C32.4696 81.255 29.5001 78.2714 29.5 74.5851C29.5 70.8987 32.4695 67.9152 36.1279 67.9152Z"></path>
<path stroke-linejoin="round" stroke-linecap="round" stroke="black" fill="white" d="M36.1279 90.8585C39.7862 90.8587 42.7549 93.8422 42.7549 97.5284C42.7548 101.215 39.7862 104.198 36.1279 104.198C32.4696 104.198 29.5001 101.215 29.5 97.5284C29.5 93.8421 32.4695 90.8585 36.1279 90.8585Z"></path>
<path stroke-linejoin="round" stroke-linecap="round" stroke="black" fill="white" d="M36.1279 113.802C39.7862 113.802 42.7549 116.786 42.7549 120.472C42.7548 124.158 39.7862 127.142 36.1279 127.142C32.4696 127.142 29.5001 124.158 29.5 120.472C29.5 116.785 32.4695 113.802 36.1279 113.802Z"></path>
<path stroke-linejoin="round" stroke-linecap="round" stroke="black" fill="white" d="M36.1279 136.745C39.7862 136.745 42.7549 139.729 42.7549 143.415C42.7548 147.101 39.7862 150.085 36.1279 150.085C32.4696 150.085 29.5001 147.101 29.5 143.415C29.5 139.729 32.4695 136.745 36.1279 136.745Z"></path>
<path stroke-linejoin="round" stroke-linecap="round" stroke="black" fill="white" d="M56.0889 56.4434C59.7471 56.4435 62.7158 59.427 62.7158 63.1133C62.7158 66.7995 59.7471 69.7831 56.0889 69.7832C52.4305 69.7832 49.461 66.7996 49.4609 63.1133C49.4609 59.4269 52.4305 56.4434 56.0889 56.4434Z"></path>
<path stroke-linejoin="round" stroke-linecap="round" stroke="black" fill="white" d="M76.042 44.9718C79.7003 44.972 82.6689 47.9554 82.6689 51.6417C82.6689 55.328 79.7002 58.3115 76.042 58.3116C72.3836 58.3116 69.4141 55.3281 69.4141 51.6417C69.4141 47.9553 72.3836 44.9718 76.042 44.9718Z"></path>
<path stroke-linejoin="round" stroke-linecap="round" stroke="black" fill="white" d="M96.0029 33.5C99.6612 33.5002 102.63 36.4836 102.63 40.1699C102.63 43.8562 99.6612 46.8397 96.0029 46.8398C92.3446 46.8398 89.3751 43.8563 89.375 40.1699C89.375 36.4835 92.3445 33.5 96.0029 33.5Z"></path>
<path stroke-linejoin="round" stroke-linecap="round" stroke="black" fill="white" d="M56.0889 79.3867C59.7471 79.3869 62.7158 82.3704 62.7158 86.0566C62.7158 89.7429 59.7471 92.7264 56.0889 92.7266C52.4305 92.7266 49.461 89.743 49.4609 86.0566C49.4609 82.3703 52.4305 79.3867 56.0889 79.3867Z"></path>
<path stroke-linejoin="round" stroke-linecap="round" stroke="black" fill="white" d="M56.0889 102.33C59.7471 102.33 62.7158 105.314 62.7158 109C62.7158 112.686 59.7471 115.67 56.0889 115.67C52.4305 115.67 49.461 112.687 49.4609 109C49.4609 105.314 52.4305 102.33 56.0889 102.33Z"></path>
<path stroke-linejoin="round" stroke-linecap="round" stroke="black" fill="white" d="M56.0889 125.274C59.7471 125.274 62.7158 128.257 62.7158 131.944C62.7158 135.63 59.7471 138.613 56.0889 138.614C52.4305 138.614 49.461 135.63 49.4609 131.944C49.4609 128.257 52.4305 125.274 56.0889 125.274Z"></path>
<path stroke-linejoin="round" stroke-linecap="round" stroke="black" fill="white" d="M56.0889 148.217C59.7471 148.217 62.7158 151.201 62.7158 154.887C62.7158 158.573 59.7471 161.557 56.0889 161.557C52.4305 161.557 49.461 158.573 49.4609 154.887C49.4609 151.201 52.4305 148.217 56.0889 148.217Z"></path>
<path stroke-linejoin="round" stroke-linecap="round" stroke="black" fill="white" d="M76.042 67.9152C79.7003 67.9153 82.6689 70.8988 82.6689 74.5851C82.6689 78.2713 79.7002 81.2549 76.042 81.255C72.3836 81.255 69.4141 78.2714 69.4141 74.5851C69.4141 70.8987 72.3836 67.9152 76.042 67.9152Z"></path>
<path stroke-linejoin="round" stroke-linecap="round" stroke="black" fill="white" d="M96.0029 56.4434C99.6612 56.4435 102.63 59.427 102.63 63.1133C102.63 66.7995 99.6612 69.7831 96.0029 69.7832C92.3446 69.7832 89.3751 66.7996 89.375 63.1133C89.375 59.4269 92.3445 56.4434 96.0029 56.4434Z"></path>
<path stroke-linejoin="round" stroke-linecap="round" stroke="black" fill="white" d="M115.956 44.9717C119.614 44.9718 122.583 47.9553 122.583 51.6416C122.583 55.3278 119.614 58.3114 115.956 58.3115C112.298 58.3115 109.328 55.3279 109.328 51.6416C109.328 47.9552 112.298 44.9717 115.956 44.9717Z"></path>
<path stroke-linejoin="round" stroke-linecap="round" stroke="black" fill="white" d="M76.042 90.8585C79.7003 90.8587 82.6689 93.8422 82.6689 97.5284C82.6689 101.215 79.7002 104.198 76.042 104.198C72.3836 104.198 69.4141 101.215 69.4141 97.5284C69.4141 93.8421 72.3836 90.8585 76.042 90.8585Z"></path>
<path stroke-linejoin="round" stroke-linecap="round" stroke="black" fill="white" d="M76.042 113.802C79.7003 113.802 82.6689 116.786 82.6689 120.472C82.6689 124.158 79.7002 127.142 76.042 127.142C72.3836 127.142 69.4141 124.158 69.4141 120.472C69.4141 116.785 72.3836 113.802 76.042 113.802Z"></path>
<path stroke-linejoin="round" stroke-linecap="round" stroke="black" fill="white" d="M76.042 136.745C79.7003 136.745 82.6689 139.729 82.6689 143.415C82.6689 147.101 79.7002 150.085 76.042 150.085C72.3836 150.085 69.4141 147.101 69.4141 143.415C69.4141 139.729 72.3836 136.745 76.042 136.745Z"></path>
<path stroke-linejoin="round" stroke-linecap="round" stroke="black" fill="white" d="M76.042 159.689C79.7003 159.689 82.6689 162.672 82.6689 166.359C82.6689 170.045 79.7002 173.029 76.042 173.029C72.3836 173.029 69.4141 170.045 69.4141 166.359C69.4141 162.672 72.3836 159.689 76.042 159.689Z"></path>
<path stroke-linejoin="round" stroke-linecap="round" stroke="black" fill="white" d="M96.0029 79.3867C99.6612 79.3869 102.63 82.3704 102.63 86.0566C102.63 89.7429 99.6612 92.7264 96.0029 92.7266C92.3446 92.7266 89.3751 89.743 89.375 86.0566C89.375 82.3703 92.3445 79.3867 96.0029 79.3867Z"></path>
<path stroke-linejoin="round" stroke-linecap="round" stroke="black" fill="white" d="M115.956 67.915C119.614 67.9152 122.583 70.8987 122.583 74.585C122.583 78.2712 119.614 81.2547 115.956 81.2549C112.298 81.2549 109.328 78.2713 109.328 74.585C109.328 70.8986 112.298 67.915 115.956 67.915Z"></path>
<path stroke-linejoin="round" stroke-linecap="round" stroke="black" fill="white" d="M135.917 56.4434C139.575 56.4435 142.544 59.427 142.544 63.1133C142.544 66.7995 139.575 69.7831 135.917 69.7832C132.259 69.7832 129.289 66.7996 129.289 63.1133C129.289 59.4269 132.259 56.4434 135.917 56.4434Z"></path>
<path stroke-linejoin="round" stroke-linecap="round" stroke="black" fill="white" d="M96.0029 102.33C99.6612 102.33 102.63 105.314 102.63 109C102.63 112.686 99.6612 115.67 96.0029 115.67C92.3446 115.67 89.3751 112.687 89.375 109C89.375 105.314 92.3445 102.33 96.0029 102.33Z"></path>
<path stroke-linejoin="round" stroke-linecap="round" stroke="black" fill="white" d="M96.0029 125.274C99.6612 125.274 102.63 128.257 102.63 131.944C102.63 135.63 99.6612 138.613 96.0029 138.614C92.3446 138.614 89.3751 135.63 89.375 131.944C89.375 128.257 92.3445 125.274 96.0029 125.274Z"></path>
<path stroke-linejoin="round" stroke-linecap="round" stroke="black" fill="white" d="M96.0029 148.217C99.6612 148.217 102.63 151.201 102.63 154.887C102.63 158.573 99.6612 161.557 96.0029 161.557C92.3446 161.557 89.3751 158.573 89.375 154.887C89.375 151.201 92.3445 148.217 96.0029 148.217Z"></path>
<path stroke-linejoin="round" stroke-linecap="round" stroke="black" fill="white" d="M96.0029 171.16C99.6612 171.161 102.63 174.144 102.63 177.83C102.63 181.517 99.6612 184.5 96.0029 184.5C92.3446 184.5 89.3751 181.517 89.375 177.83C89.375 174.144 92.3445 171.16 96.0029 171.16Z"></path>
<path stroke-linejoin="round" stroke-linecap="round" stroke="black" fill="white" d="M115.956 90.8584C119.614 90.8586 122.583 93.842 122.583 97.5283C122.583 101.215 119.614 104.198 115.956 104.198C112.298 104.198 109.328 101.215 109.328 97.5283C109.328 93.8419 112.298 90.8584 115.956 90.8584Z"></path>
<path stroke-linejoin="round" stroke-linecap="round" stroke="black" fill="white" d="M115.956 113.802C119.614 113.802 122.583 116.785 122.583 120.472C122.583 124.158 119.614 127.141 115.956 127.142C112.298 127.142 109.328 124.158 109.328 120.472C109.328 116.785 112.298 113.802 115.956 113.802Z"></path>
<path stroke-linejoin="round" stroke-linecap="round" stroke="black" fill="white" d="M115.956 136.745C119.614 136.745 122.583 139.729 122.583 143.415C122.583 147.101 119.614 150.085 115.956 150.085C112.298 150.085 109.328 147.101 109.328 143.415C109.328 139.729 112.298 136.745 115.956 136.745Z"></path>
<path stroke-linejoin="round" stroke-linecap="round" stroke="black" fill="white" d="M115.956 159.689C119.614 159.689 122.583 162.672 122.583 166.359C122.583 170.045 119.614 173.028 115.956 173.029C112.298 173.029 109.328 170.045 109.328 166.359C109.328 162.672 112.298 159.689 115.956 159.689Z"></path>
<path stroke-linejoin="round" stroke-linecap="round" stroke="black" fill="white" d="M135.917 79.3867C139.575 79.3869 142.544 82.3704 142.544 86.0566C142.544 89.7429 139.575 92.7264 135.917 92.7266C132.259 92.7266 129.289 89.743 129.289 86.0566C129.289 82.3703 132.259 79.3867 135.917 79.3867Z"></path>
<path stroke-linejoin="round" stroke-linecap="round" stroke="black" fill="white" d="M135.917 102.33C139.575 102.33 142.544 105.314 142.544 109C142.544 112.686 139.575 115.67 135.917 115.67C132.259 115.67 129.289 112.687 129.289 109C129.289 105.314 132.259 102.33 135.917 102.33Z"></path>
<path stroke-linejoin="round" stroke-linecap="round" stroke="black" fill="white" d="M135.917 125.274C139.575 125.274 142.544 128.257 142.544 131.944C142.544 135.63 139.575 138.613 135.917 138.614C132.259 138.614 129.289 135.63 129.289 131.944C129.289 128.257 132.259 125.274 135.917 125.274Z"></path>
<path stroke-linejoin="round" stroke-linecap="round" stroke="black" fill="white" d="M135.917 148.217C139.575 148.217 142.544 151.201 142.544 154.887C142.544 158.573 139.575 161.557 135.917 161.557C132.259 161.557 129.289 158.573 129.289 154.887C129.289 151.201 132.259 148.217 135.917 148.217Z"></path>
<path stroke-linejoin="round" stroke-linecap="round" stroke="black" fill="white" d="M155.87 67.915C159.528 67.9152 162.497 70.8987 162.497 74.585C162.497 78.2712 159.528 81.2547 155.87 81.2549C152.212 81.2549 149.242 78.2713 149.242 74.585C149.242 70.8986 152.212 67.915 155.87 67.915Z"></path>
<path stroke-linejoin="round" stroke-linecap="round" stroke="black" fill="white" d="M155.87 90.8584C159.528 90.8586 162.497 93.842 162.497 97.5283C162.497 101.215 159.528 104.198 155.87 104.198C152.212 104.198 149.242 101.215 149.242 97.5283C149.242 93.8419 152.212 90.8584 155.87 90.8584Z"></path>
<path stroke-linejoin="round" stroke-linecap="round" stroke="black" fill="white" d="M155.87 113.802C159.528 113.802 162.497 116.785 162.497 120.472C162.497 124.158 159.528 127.141 155.87 127.142C152.212 127.142 149.242 124.158 149.242 120.472C149.242 116.785 152.212 113.802 155.87 113.802Z"></path>
<path stroke-linejoin="round" stroke-linecap="round" stroke="black" fill="white" d="M155.87 136.745C159.528 136.745 162.497 139.729 162.497 143.415C162.497 147.101 159.528 150.085 155.87 150.085C152.212 150.085 149.242 147.101 149.242 143.415C149.242 139.729 152.212 136.745 155.87 136.745Z"></path>
<path stroke-linejoin="round" stroke-linecap="round" stroke="url(#paint1_linear_2945_96651)" d="M191 55V163L96 217V109L191 55Z"></path>
<path stroke-linejoin="round" stroke-linecap="round" stroke="url(#paint2_linear_2945_96651)" d="M96 217L1 163V55L96 109V217Z"></path>
<path stroke-linejoin="round" stroke-linecap="round" stroke="url(#paint3_linear_2945_96651)" d="M96 109L1 55L96 1L191 55L96 109Z"></path>
<defs>
<linearGradient gradientUnits="userSpaceOnUse" y2="267.495" x2="46.5846" y1="111.98" x1="-7.89421" id="paint0_linear_2945_96651">
<stop stop-color="#37D7FA"></stop>
<stop stop-color="#4B72FE" offset="0.4"></stop>
<stop stop-color="#FF8DF2" offset="0.68"></stop>
<stop stop-color="#FF8705" offset="1"></stop>
</linearGradient>
<linearGradient gradientUnits="userSpaceOnUse" y2="183.919" x2="222.341" y1="59.4702" x1="91.5529" id="paint1_linear_2945_96651">
<stop stop-color="#37D7FA"></stop>
<stop stop-color="#4B72FE" offset="0.4"></stop>
<stop stop-color="#FF8DF2" offset="0.68"></stop>
<stop stop-color="#FF8705" offset="1"></stop>
</linearGradient>
<linearGradient gradientUnits="userSpaceOnUse" y2="183.919" x2="127.341" y1="59.4702" x1="-3.44711" id="paint2_linear_2945_96651">
<stop stop-color="#37D7FA"></stop>
<stop stop-color="#4B72FE" offset="0.4"></stop>
<stop stop-color="#FF8DF2" offset="0.68"></stop>
<stop stop-color="#FF8705" offset="1"></stop>
</linearGradient>
<linearGradient gradientUnits="userSpaceOnUse" y2="159.495" x2="46.5846" y1="3.98016" x1="-7.89421" id="paint3_linear_2945_96651">
<stop stop-color="#37D7FA"></stop>
<stop stop-color="#4B72FE" offset="0.4"></stop>
<stop stop-color="#FF8DF2" offset="0.68"></stop>
<stop stop-color="#FF8705" offset="1"></stop>
</linearGradient>
</defs>
</svg>
