<svg xmlns="http://www.w3.org/2000/svg" fill="none" viewBox="0 0 218 230" height="230" width="218">
<path stroke-linejoin="round" stroke-linecap="round" stroke-miterlimit="10" stroke="black" fill="white" d="M107.203 49.9609C82.0319 39.5454 20.05 46.1572 17.3223 79.709C16.9565 85.8047 20.2907 91.4088 22.4608 94.326C24.3883 96.7529 24.8759 97.1221 25.6717 98.0195L29.8353 94.9047C3.37009 68.6753 57.2722 38.1272 102.529 53.6569L107.203 49.9609Z"></path>
<path fill="black" d="M107.188 77.4564L102.42 81.0108L102.394 53.1396L107.162 49.5852L107.188 77.4564Z"></path>
<path stroke-linejoin="round" stroke-linecap="round" stroke="black" fill="#F5F5F5" d="M103.344 34.3331C103.203 34.4266 103.023 34.5857 102.881 34.6792C102.447 35.1289 102.057 35.9552 102.062 37.0091L102.083 42.8902L102.101 49.3829L102.133 52.8175C80.0132 45.9159 56.6882 47.7786 39.5094 57.6574C38.9154 57.9277 38.4527 58.2737 37.9244 58.5819C35.0655 60.3475 32.573 62.2372 30.4746 64.3544C30.3331 64.4479 30.1813 64.7107 30.0019 64.8699C29.2358 65.7415 28.404 66.5753 27.7416 67.4192C26.9275 68.5259 26.0097 69.6604 25.3648 70.7773C25.289 70.9086 25.2511 70.9743 25.1373 71.1714L25.0614 71.3028C24.9856 71.4342 24.8338 71.697 24.758 71.8284C24.5683 72.1569 24.4823 72.4576 24.2547 72.8518C24.2445 73.0211 24.1307 73.2182 24.0169 73.4153L23.979 73.481C23.9031 73.6124 23.855 73.8474 23.7792 73.9788C21.5155 79.4168 22.2266 84.5577 25.8643 89.6362L25.93 89.6741L25.9956 89.712C26.9682 91.0619 28.0166 92.2805 29.4315 93.6229C29.8284 93.2389 30.291 92.8928 30.329 92.8271C30.4705 92.7336 30.5844 92.5365 30.7259 92.4431C32.8243 90.3259 35.4583 88.3428 38.2895 86.4735C38.7142 86.1931 39.2804 85.8191 39.8744 85.5489C56.9875 75.6322 80.2748 73.8352 102.328 80.6989L102.355 93.8535L102.331 97.0808C102.335 98.1347 102.613 99.171 103.098 100.152C103.126 100.255 103.192 100.293 103.219 100.397C103.341 100.642 103.565 100.86 103.649 101.171C104.76 103.039 106.552 104.336 108.02 104.22L152.949 100.289C153.119 100.299 153.222 100.271 153.392 100.282C153.665 100.264 153.948 100.077 154.127 99.918C154.703 99.3748 154.962 98.4727 154.929 97.3151C154.849 96.3927 154.581 95.187 153.965 94.1304L153.75 93.7436C153.497 93.4226 153.283 93.0359 153.03 92.7148L148.95 87.6436L108.15 36.9327L107.86 36.6773C106.41 34.789 104.615 34.1036 103.344 34.3331Z"></path>
<path stroke-linejoin="round" stroke-linecap="round" stroke-miterlimit="10" stroke="black" fill="white" d="M114.02 33.1413L154.969 84.2011L159.049 89.2721C159.367 89.6311 159.516 89.9799 159.769 90.3009L159.984 90.6877C161.244 92.9046 161.299 95.389 160.146 96.4753L159.411 96.839L154.166 99.8549C154.742 99.3117 155.038 98.3439 154.968 97.2521C154.887 96.3296 154.619 95.1239 154.003 94.0673L153.788 93.6806C153.536 93.3596 153.321 92.9728 153.068 92.6517L148.988 87.5806L108.189 36.8697L107.898 36.6143C106.448 34.726 104.72 34.0785 103.569 34.5532L109.06 31.4161L109.522 31.07C110.607 30.5573 112.363 31.3084 114.02 33.1413Z"></path>
<path stroke-linejoin="round" stroke-linecap="round" stroke-miterlimit="10" stroke="black" fill="white" d="M104 168C137.137 168 164 141.14 164 108C164 74.861 137.137 48.0002 104 48.0002C70.8632 48.0002 44 74.861 44 108C44 141.14 70.8632 168 104 168Z"></path>
<path stroke-linejoin="round" stroke-linecap="round" stroke-miterlimit="10" stroke="black" d="M104 142.372C137.136 142.372 164 126.983 164 108C164 89.0174 137.136 73.6284 104 73.6284C70.8645 73.6284 44 89.0174 44 108C44 126.983 70.8645 142.372 104 142.372Z"></path>
<path stroke-linejoin="round" stroke-linecap="round" stroke-miterlimit="10" stroke="black" d="M103.997 168C122.982 168 138.369 141.137 138.369 108C138.369 74.8636 122.982 48.0002 103.997 48.0002C85.0121 48.0002 69.625 74.8636 69.625 108C69.625 141.137 85.0121 168 103.997 168Z"></path>
<path stroke-linejoin="round" stroke-linecap="round" stroke-miterlimit="10" stroke="black" fill="white" d="M29.7584 122.193L25.5569 125.374L25.5684 97.4368L29.6662 94.2841L29.7584 122.193Z"></path>
<path stroke-linejoin="round" stroke-linecap="round" stroke="black" fill="#F5F5F5" d="M22.3978 93.6772C23.4083 94.9614 24.4568 96.1799 25.6088 97.3706L25.701 125.28C20.2007 120.089 16.7331 112.744 17.4634 105.107L17.4226 82.5706C17.9217 86.713 19.7679 90.4945 22.3978 93.6772Z"></path>
<path stroke-linejoin="round" stroke-linecap="round" stroke="black" fill="#F5F5F5" d="M177.146 84.7937C187.577 92.2172 195.664 101.879 190.726 113.92C190.613 114.117 190.527 114.418 190.413 114.615C190.403 114.785 190.251 115.047 190.137 115.244C189.975 115.677 189.71 116.136 189.52 116.465C189.444 116.596 189.293 116.859 189.179 117.056L189.065 117.253C188.989 117.385 188.875 117.582 188.799 117.713C187.965 119.159 186.999 120.528 185.902 121.822C183.018 114.375 170.174 108.098 165.246 105.254L164.965 77.6729L165.389 77.3925C169.265 79.6304 173.329 82.1514 177.146 84.7937Z"></path>
<path stroke-linejoin="round" stroke-linecap="round" stroke-miterlimit="10" stroke="black" fill="black" d="M94.1197 190.064L93.695 190.344L87.1028 193.721C87.6033 193.309 88.0558 193.133 88.0511 192.079L89.0759 188.028L89.1392 171.684C91.1684 172.417 93.1421 172.944 95.1436 173.574L95.2022 187.886C95.1791 188.836 94.8275 189.597 94.1197 190.064Z"></path>
<path stroke-linejoin="round" stroke-linecap="round" stroke-miterlimit="10" stroke="black" fill="white" d="M94.0402 139.826C94.1165 122.701 95.5151 119.217 74.6966 122.351C53.5422 124.854 44.5179 122.885 36.5499 128.796C41.8701 127.926 57.2308 129.086 74.4954 127.403C87.5749 125.232 88.4514 127.052 87.9985 144.222C114.1 152.722 145.783 152.619 170.21 142.019C201.897 128.253 211 97.769 176.999 77.6129L165.105 77.5787C232.554 111.264 156.387 161.106 94.0402 139.826Z"></path>
<path stroke-linejoin="round" stroke-linecap="round" stroke="black" fill="url(#paint0_linear_2944_95902)" d="M198.865 106.352C198.081 147.158 126.722 157.115 89.2768 143.38C89.216 135.899 90.661 122.017 81.6758 123.925C70.2008 127.111 28.5269 122.672 37.4623 134.05C40.7336 139.005 61.1186 163.476 76.4077 182.815C91.4415 202.444 89.1923 194.05 89.2172 171.552C120.451 183.453 195.127 178.827 199.587 134.537L198.865 106.352Z"></path>
<defs>
<linearGradient gradientUnits="userSpaceOnUse" y2="123.183" x2="18.9845" y1="107.987" x1="214.039" id="paint0_linear_2944_95902">
<stop stop-color="#37D7FA"></stop>
<stop stop-color="#4B72FE" offset="0.4"></stop>
<stop stop-color="#FF8DF2" offset="0.68"></stop>
<stop stop-color="#FF8705" offset="1"></stop>
</linearGradient>
</defs>
</svg>
